<svg width="32" height="32" viewBox="0 0 32 32" fill="none" xmlns="http://www.w3.org/2000/svg">
<path d="M16 2.6665C23.364 2.6665 29.3334 8.63584 29.3334 15.9998C29.3334 23.3638 23.364 29.3332 16 29.3332C8.63602 29.3332 2.66669 23.3638 2.66669 15.9998C2.66669 8.63584 8.63602 2.6665 16 2.6665ZM16 5.33317C13.171 5.33317 10.4579 6.45698 8.45755 8.45736C6.45716 10.4578 5.33335 13.1709 5.33335 15.9998C5.33335 18.8288 6.45716 21.5419 8.45755 23.5423C10.4579 25.5427 13.171 26.6665 16 26.6665C18.829 26.6665 21.5421 25.5427 23.5425 23.5423C25.5429 21.5419 26.6667 18.8288 26.6667 15.9998C26.6667 13.1709 25.5429 10.4578 23.5425 8.45736C21.5421 6.45698 18.829 5.33317 16 5.33317V5.33317ZM16 9.33317C17.4035 9.3337 18.771 9.77713 19.9076 10.6003C21.0443 11.4234 21.8923 12.5843 22.3306 13.9176C22.769 15.2508 22.7754 16.6884 22.349 18.0255C21.9225 19.3626 21.085 20.531 19.9557 21.3642C18.8264 22.1975 17.4629 22.6531 16.0596 22.6662C14.6562 22.6793 13.2844 22.2491 12.1398 21.437C10.9952 20.6249 10.1361 19.4723 9.68483 18.1434C9.23358 16.8144 9.21323 15.377 9.62669 14.0358C9.93858 14.7328 10.4804 15.3015 11.1614 15.6467C11.8425 15.992 12.6214 16.0928 13.3679 15.9324C14.1145 15.7721 14.7833 15.3601 15.2624 14.7656C15.7415 14.1711 16.0019 13.4301 16 12.6665C16.0002 12.0245 15.8149 11.396 15.4665 10.8567C15.1181 10.3174 14.6214 9.89025 14.036 9.6265C14.6574 9.43584 15.316 9.33317 16 9.33317V9.33317Z" fill="#F67147"/>
</svg>
